<svg xmlns="http://www.w3.org/2000/svg" viewBox="0 0 640 512"><!--!Font Awesome Free 6.5.1 by @fontawesome - https://fontawesome.com License - https://fontawesome.com/license/free Copyright 2024 Fonticons, Inc.--><path d="M144 480C64.5 480 0 415.5 0 336c0-62.8 40.1-116.1 96.4-134.6C98.1 175.9 109.5 150.1 128 128c19.7-23.5 48.2-39.6 79.6-45.3c1.5-.3 3-1.2 4.4-1.4c6.7-1.2 13.4-1.7 20.1-1.7c6.4 0 12.6 .4 18.7 1.1c17.9 2.1 34.7 7.3 50.1 15.3c15.8 8.1 29.5 19.4 40.1 33.2c11.2 14.5 19.6 31.5 24.3 50.1c4.6 18.1 5.6 36.8 2.9 54.9c.1 .1 .3 .2 .4 .2c24.5 4.1 46.3 14.6 62.7 30.8c12.9 12.9 21.6 29.1 25.8 46.6c3.9 16.6 3.2 33.7-2.1 50C558.3 459.4 536.5 480 512 480H144zM223 223c-6.7 0-13.2 2.7-17.9 7.4L160 275.5c-4.7 4.7-7.4 11.2-7.4 17.9s2.7 13.2 7.4 17.9l45.1 45.1c4.7 4.7 11.2 7.4 17.9 7.4s13.2-2.7 17.9-7.4l45.1-45.1c4.7-4.7 7.4-11.2 7.4-17.9s-2.7-13.2-7.4-17.9L241 230.5c-4.7-4.7-11.2-7.4-17.9-7.4V144c0-17.7-14.3-32-32-32s-32 14.3-32 32V223zM352 224a32 32 0 1 1 64 0 32 32 0 1 1 -64 0zM224 384a32 32 0 1 1 0-64 32 32 0 1 1 0 64zM448 352a32 32 0 1 1 64 0 32 32 0 1 1 -64 0z"/></svg>
