<svg xmlns="http://www.w3.org/2000/svg" viewBox="0 0 576 512"><path d="M0 64C0 28.65 28.65 0 64 0h224l204.8 204.8C500.8 212.8 512 224.8 512 240c0 8.838-3.162 17.66-9.362 24.64L393.3 373.3c-6.1 6.1-14.84 9.35-23.31 9.35H64c-35.35 0-64-28.65-64-64V64zm320 0v128h128L320 0zM96 288h160c8.838 0 16 7.162 16 16s-7.162 16-16 16H96c-8.838 0-16-7.162-16-16S87.16 288 96 288zM308.4 420.3l-22.62-22.62c-6-6-14.14-9.375-22.62-9.375H128v-64h160c8.838 0 16 7.162 16 16s-7.162 16-16 16H160v32h100.8L308.4 420.3zM512.6 404.6L448 339.9V240c0-4.412-1.788-8.412-4.688-11.31l-80-80c-2.9-2.9-6.9-4.688-11.31-4.688H64v256h256c4.412 0 8.412 1.788 11.31 4.688l106.6 106.6c12.48 12.48 32.75 12.48 45.25 0l29.52-29.52C525.1 437.4 525.1 417.1 512.6 404.6z"/></svg>
