<svg xmlns="http://www.w3.org/2000/svg" viewBox="0 0 384 512"><!--!Font Awesome Free 6.5.1 by @fontawesome - https://fontawesome.com License - https://fontawesome.com/license/free Copyright 2024 Fonticons, Inc.--><path d="M256 0H88C74.7 0 64 10.7 64 24v48h16V24c0-4.4 3.6-8 8-8h168c4.4 0 8 3.6 8 8v144c0 4.4-3.6 8-8 8H88c-4.4 0-8-3.6-8-8V96H64v72c0 13.3 10.7 24 24 24h168c13.3 0 24-10.7 24-24V160H256V0zM64 224H320c17.7 0 32 14.3 32 32V480c0 17.7-14.3 32-32 32H64c-17.7 0-32-14.3-32-32V256c0-17.7 14.3-32 32-32zm0 32v32h80V256H64zm112 0v32h80V256h-80zm112 0v32h80V256h-80zM64 352v32h80V320H64zm112 0v32h80V320h-80zm112 0v32h80V320h-80zM64 416v32h80V384H64zm112 0v32h80V384h-80zm112 0v32h80V384h-80z"/></svg>
