<svg xmlns="http://www.w3.org/2000/svg" viewBox="0 0 576 512"><!--!Font Awesome Free 6.5.1 by @fontawesome - https://fontawesome.com License - https://fontawesome.com/license/free Copyright 2024 Fonticons, Inc.--><path d="M384 480h48c11.5 0 21.4-8.2 23.6-19.5l22.8-114.2c2.1-10.5-5.5-20.2-16.1-20.2H211.8l-22.5-73.9c-2.5-8.1-9.8-13.4-18.2-13.4H60.3c-11.5 0-21.4 8.2-23.6 19.5L13.9 351.5C11.8 361.9 19.1 372 29.7 372h148.7l22.5 73.9c2.5 8.1 9.8 13.4 18.2 13.4H384zM576 192H464l-20.7-62.1c-2.5-7.6-9.6-12.6-17.5-12.6H288l-20.7-62.1c-2.5-7.6-9.6-12.6-17.5-12.6H32C14.3 42.3 0 56.6 0 74.3V408c0 26.5 21.5 48 48 48h288c20.6 0 38.8-12.5 45.6-31.2L572.1 225c3.6-11.2-3.7-22.9-15.3-25.9c-1.2-.3-2.4-.6-3.6-.8z"/></svg>
