<svg xmlns="http://www.w3.org/2000/svg" viewBox="0 0 512 512"><!--!Font Awesome Free 6.5.1 by @fontawesome - https://fontawesome.com License - https://fontawesome.com/license/free Copyright 2024 Fonticons, Inc.--><path d="M495.9 166.6c3.2 8.7 .5 18.4-6.4 24.6l-43.3 39.4c1.1 8.3 1.7 16.8 1.7 25.4s-.6 17.1-1.7 25.4l43.3 39.4c6.9 6.2 9.6 15.9 6.4 24.6c-3.2 8.7-11.5 14.6-20.8 14.6h-86.1c-3.6 12.8-8.6 25.2-14.9 36.8l25.7 77.2c5.2 15.6-1.6 32.9-17.2 38.1s-32.9-1.6-38.1-17.2l-44.5-29.7c-11.9 5.5-24.5 9.8-37.8 12.8V464c0 9.9-8.1 18-18 18h-80c-9.9 0-18-8.1-18-18v-53.5c-13.2-3.1-25.9-7.3-37.8-12.8l-44.5 29.7c-5.2 15.6-22.5 22.4-38.1 17.2s-22.4-22.5-17.2-38.1l25.7-77.2c-6.3-11.6-11.3-24-14.9-36.8H36.9c-9.3 0-17.5-5.9-20.8-14.6c-3.2-8.7-.5-18.4 6.4-24.6l43.3-39.4C60.6 273.1 60 264.6 60 256s.6-17.1 1.7-25.4L18.5 191.2c-6.9-6.2-9.6-15.9-6.4-24.6c3.2-8.7 11.5-14.6 20.8-14.6h86.1c3.6-12.8 8.6-25.2 14.9-36.8L108.1 38c-5.2-15.6 1.6-32.9 17.2-38.1s32.9 1.6 38.1 17.2l44.5 29.7c11.9-5.5 24.5-9.8 37.8-12.8V18c0-9.9 8.1-18 18-18h80c9.9 0 18 8.1 18 18v53.5c13.2 3.1 25.9 7.3 37.8 12.8l44.5-29.7c5.2-15.6 22.5-22.4 38.1-17.2s22.4 22.5 17.2 38.1l-25.7 77.2c6.3 11.6 11.3 24 14.9 36.8h86.1c9.3 0 17.5 5.9 20.8 14.6zM256 336a80 80 0 1 0 0-160 80 80 0 1 0 0 160z"/></svg>
