<svg xmlns="http://www.w3.org/2000/svg" viewBox="0 0 512 512"><!--!Font Awesome Free 6.5.1 by @fontawesome - https://fontawesome.com License - https://fontawesome.com/license/free Copyright 2024 Fonticons, Inc.--><path d="M352 256c0 22.2-1.2 43.6-3.3 64H163.3c-2.2-20.4-3.3-41.8-3.3-64s1.2-43.6 3.3-64H348.7c2.2 20.4 3.3 41.8 3.3 64zm28.8-64H503.9c5.3 20.5 8.1 41.9 8.1 64s-2.8 43.5-8.1 64H380.8c2.1-20.6 3.2-42 3.2-64s-1.1-43.4-3.2-64zm112.6-32H376.7c-10-63.9-29.8-117.4-55.3-151.6c78.4 10.7 144.6 50.3 180.2 107.6A320.7 320.7 0 0 1 493.4 160zm-84.4 288H401.2c10-63.9 29.8-117.4 55.3-151.6c-78.4 10.7-144.6 50.3-180.2 107.6c-11.1 17.7-23.2 34.3-36.2 49.8c15.3 5.9 31.3 10.8 47.9 14.2zM160 128H24.6C60.2 70.7 126.4 31.1 204.8 20.4C179.3 54.6 160 108.1 160 176v8c-1.7 0-3.4 0-5.1 0H160V128zM32 160H150.9c-1.1 20.6-1.8 41.5-1.8 62.5c0 8.3 .2 16.5 .6 24.5H32c-5.3-20.5-8.1-41.9-8.1-64s2.8-43.5 8.1-64zM112 352H24.6c5.5 19.9 12.4 38.8 20.5 56.2c20.1 43.1 49.2 79.6 83.4 108.1C109.5 497.3 92.1 478.5 77.8 458.1C59.2 430.5 43.8 396.3 34.6 359.5L32 352zm36.8 96H152c1.7 0 3.4 0 5.1 0h193.8c1.7 0 3.4 0 5.1 0h2.1c-15.3-5.9-31.3-10.8-47.9-14.2c13-15.5 25.1-32.1 36.2-49.8C288.4 329.5 222.2 289.9 143.8 279.2c-13.1 32.1-20.9 67.3-22.6 104.1zM256 512A256 256 0 1 0 256 0a256 256 0 1 0 0 512z"/></svg>
