<svg xmlns="http://www.w3.org/2000/svg" viewBox="0 0 512 512"><path d="M128 0C110.3 0 96 14.33 96 32v64H32C14.33 96 0 110.3 0 128s14.33 32 32 32h64v32c0 17.67 14.33 32 32 32s32-14.33 32-32v-32h32c17.67 0 32-14.33 32-32s-14.33-32-32-32h-32V32C160 14.33 145.7 0 128 0zM384 128h-32v-64c0-17.67-14.33-32-32-32s-32 14.33-32 32v64h-32c-17.67 0-32 14.33-32 32s14.33 32 32 32h32v32c0 17.67 14.33 32 32 32s32-14.33 32-32v-32h32c17.67 0 32-14.33 32-32S401.7 128 384 128zM128 256c-17.67 0-32 14.33-32 32v32H32c-17.67 0-32 14.33-32 32s14.33 32 32 32h64v64c0 17.67 14.33 32 32 32s32-14.33 32-32v-64h32c17.67 0 32-14.33 32-32s-14.33-32-32-32h-32v-32C160 270.3 145.7 256 128 256zM384 256H256c-17.67 0-32 14.33-32 32s14.33 32 32 32h128c17.67 0 32-14.33 32-32S401.7 256 384 256zM256 384H128c-17.67 0-32 14.33-32 32s14.33 32 32 32h128c17.67 0 32-14.33 32-32S273.7 384 256 384z"/></svg>
