<svg width="100" height="100" viewBox="0 0 100 100" fill="none" xmlns="http://www.w3.org/2000/svg">
    <circle cx="50" cy="50" r="40" fill="#F7D10F"/>
    <circle cx="50" cy="50" r="35" fill="#FFF3D6"/>
    <path d="M45.8689 40.941C47.8537 43.8521 52.1463 43.8521 54.1311 40.941L61.9228 29.5133C63.5765 27.0878 62.7847 23.7786 60.083 22.6304C57.0431 21.3385 53.1367 20 50 20C46.8633 20 42.9569 21.3385 39.917 22.6304C37.2153 23.7786 36.4235 27.0878 38.0772 29.5133L45.8689 40.941Z" fill="#FFBB4E"/>
    <path d="M40.3955 50.1396C43.8099 49.2702 45.278 45.2364 43.2213 42.3756L35.1477 31.1454C33.4341 28.7618 30.0537 28.3741 28.0507 30.5202C25.797 32.9348 23.2031 36.1478 22.1303 39.0954C21.0575 42.043 20.9792 46.1715 21.1535 49.4699C21.3084 52.4014 24.1472 54.2773 26.992 53.5529L40.3955 50.1396Z" fill="#FFBB4E"/>
    <path d="M57.55 52.6278C54.1583 51.6736 50.87 54.4329 51.2207 57.9387L52.5976 71.7012C52.8898 74.6222 55.6235 76.6482 58.4311 75.7912C61.5903 74.8269 65.4431 73.3413 67.8459 71.325C70.2488 69.3087 72.3809 65.7725 73.8791 62.8288C75.2107 60.2126 73.6902 57.1686 70.8643 56.3736L57.55 52.6278Z" fill="#FFBB4E"/>
    <path d="M58.411 42.3756C56.3543 45.2364 57.8225 49.2701 61.2368 50.1396L74.6403 53.5529C77.4851 54.2773 80.3239 52.4014 80.4788 49.4699C80.6531 46.1715 80.5748 42.043 79.502 39.0954C78.4292 36.1478 75.8354 32.9348 73.5816 30.5202C71.5787 28.3741 68.1982 28.7618 66.4846 31.1454L58.411 42.3756Z" fill="#FFBB4E"/>
    <path d="M47.1159 58.9387C47.4667 55.4329 44.1783 52.6736 40.7867 53.6278L27.4723 57.3736C24.6464 58.1686 23.1259 61.2126 24.4575 63.8288C25.9557 66.7725 28.0878 70.3088 30.4907 72.325C32.8936 74.3413 36.7464 75.8269 39.9055 76.7912C42.7131 77.6482 45.4468 75.6222 45.7391 72.7012L47.1159 58.9387Z" fill="#FFBB4E"/>
</svg>
